<svg width="192" height="192" viewBox="0 0 192 192" fill="none" xmlns="http://www.w3.org/2000/svg">
<path d="M192 96C192 149.019 149.019 192 96 192C42.9807 192 0 149.019 0 96C0 42.9807 42.9807 0 96 0C149.019 0 192 42.9807 192 96ZM12.9846 96C12.9846 141.848 50.1519 179.015 96 179.015C141.848 179.015 179.015 141.848 179.015 96C179.015 50.1519 141.848 12.9846 96 12.9846C50.1519 12.9846 12.9846 50.1519 12.9846 96Z" fill="#F3F5F4"/>
<path d="M8.22388 57.1239C-0.539185 76.9095 -2.36058 99.0754 3.05515 120.026C8.47087 140.977 20.806 159.483 38.0597 172.544C55.3134 185.604 76.4735 192.452 98.1076 191.977C119.742 191.502 140.581 183.731 157.245 169.926C173.908 156.121 185.419 137.091 189.91 115.923C194.401 94.7546 191.608 72.69 181.985 53.3081C172.362 33.9263 156.473 18.3641 136.895 9.14602C117.317 -0.072081 95.1992 -2.40539 74.1289 2.52458L77.0871 15.1677C95.3075 10.9046 114.434 12.9223 131.364 20.8936C148.293 28.8649 162.033 42.3221 170.355 59.0825C178.676 75.8428 181.091 94.923 177.208 113.228C173.325 131.533 163.371 147.989 148.961 159.927C134.551 171.865 116.531 178.585 97.8226 178.995C79.1146 179.406 60.8165 173.484 45.8965 162.191C30.9765 150.897 20.3097 134.893 15.6265 116.776C10.9433 98.6594 12.5183 79.4916 20.0962 62.3821L8.22388 57.1239Z" fill="#006837"/>
</svg>
