<svg width="192" height="192" viewBox="0 0 192 192" fill="none" xmlns="http://www.w3.org/2000/svg">
<path d="M192 96C192 149.019 149.019 192 96 192C42.9807 192 0 149.019 0 96C0 42.9807 42.9807 0 96 0C149.019 0 192 42.9807 192 96ZM12.9846 96C12.9846 141.848 50.1519 179.015 96 179.015C141.848 179.015 179.015 141.848 179.015 96C179.015 50.1519 141.848 12.9846 96 12.9846C50.1519 12.9846 12.9846 50.1519 12.9846 96Z" fill="#F3F5F4"/>
<path d="M44.343 15.0831C24.2274 27.9248 9.61617 47.7986 3.35871 70.8287C-2.89874 93.8589 -0.353754 118.394 10.4974 139.65C21.3485 160.905 39.7277 177.357 62.0507 185.797C84.3738 194.236 109.04 194.059 131.239 185.298C153.438 176.538 171.579 159.823 182.122 138.414C192.666 117.004 194.858 92.4346 188.269 69.497C181.681 46.5593 166.785 26.898 146.486 14.3474C126.188 1.79678 101.942 -2.74328 78.478 1.61261L80.8479 14.3791C101.139 10.6124 122.105 14.5384 139.658 25.3914C157.211 36.2445 170.092 53.2465 175.789 73.0817C181.487 92.9169 179.592 114.163 170.474 132.677C161.356 151.191 145.669 165.645 126.473 173.22C107.276 180.796 85.9463 180.949 66.6426 173.651C47.3389 166.353 31.4456 152.126 22.0621 133.746C12.6787 115.365 10.4779 94.1485 15.889 74.2333C21.3001 54.3181 33.9351 37.1324 51.3299 26.0276L44.343 15.0831Z" fill="#006837"/>
</svg>
